<?xml version="1.0" encoding="UTF-8"?>
<svg xmlns="http://www.w3.org/2000/svg" xmlns:xlink="http://www.w3.org/1999/xlink" width="2835" height="2835" viewBox="0 0 2835 2835">
<path fill-rule="evenodd" fill="rgb(100%, 100%, 100%)" fill-opacity="1" d="M 0 0.351562 L 2834.648438 0.351562 L 2834.648438 2835 L 0 2835 L 0 0.351562 "/>
<path fill-rule="evenodd" fill="rgb(45.872498%, 67.771912%, 25.097656%)" fill-opacity="1" d="M 945.964844 1884.019531 C 1129.621094 1884.019531 1296.039062 1945.183594 1417.320312 2044.277344 C 1538.601562 1945.183594 1705.019531 1884.019531 1888.679688 1884.019531 C 2139.988281 1884.019531 2359.039062 1998.53125 2474.320312 2168.03125 C 2353.261719 2021.324219 2149.949219 1925.035156 1919.398438 1925.035156 C 1719.78125 1925.035156 1540.359375 1997.316406 1417.320312 2112.046875 C 1294.28125 1997.316406 1114.871094 1925.035156 915.246094 1925.035156 C 684.691406 1925.035156 481.386719 2021.324219 360.324219 2168.03125 C 475.605469 1998.53125 694.65625 1884.019531 945.964844 1884.019531 "/>
<path fill-rule="evenodd" fill="rgb(5.099487%, 62.304688%, 84.375%)" fill-opacity="1" d="M 877.039062 1706.980469 C 1077.269531 1669.101562 1270.109375 1713.859375 1408.570312 1814.550781 C 1546.859375 1713.859375 1739.808594 1669.101562 1940.039062 1706.980469 C 2016.890625 1721.558594 2088.410156 1747.050781 2152.648438 1781.128906 L 1881.410156 1412.671875 L 2274.371094 1862.882812 L 2188.320312 1829.578125 C 2143.351562 1814.710938 2096 1802.988281 2046.621094 1794.78125 C 1801.800781 1753.820312 1566.679688 1809.371094 1408.570312 1927.351562 C 1250.410156 1809.371094 1015.28125 1753.820312 770.351562 1794.78125 C 721.082031 1802.988281 673.734375 1814.710938 628.644531 1829.578125 L 542.710938 1862.882812 L 935.671875 1412.671875 L 664.484375 1781.128906 C 728.675781 1747.050781 800.191406 1721.558594 877.039062 1706.980469 "/>
<path fill-rule="evenodd" fill="rgb(5.099487%, 62.304688%, 84.375%)" fill-opacity="1" d="M 1417.320312 667.320312 L 2117.75 990.800781 L 1417.320312 1314.398438 L 716.894531 990.800781 L 1417.320312 667.320312 "/>
<path fill-rule="evenodd" fill="rgb(5.099487%, 62.304688%, 84.375%)" fill-opacity="1" d="M 1762.828125 1456.929688 L 1417.320312 1616.578125 L 1071.808594 1456.929688 L 1071.808594 1197.738281 L 1417.320312 1357.390625 L 1762.828125 1197.738281 L 1762.828125 1456.929688 "/>
</svg>
